<svg xmlns="http://www.w3.org/2000/svg" width="64" height="64" viewBox="0 0 64 64" fill="none">
  <defs>
    <linearGradient id="brand-bg" x1="8" y1="6" x2="57" y2="58" gradientUnits="userSpaceOnUse">
      <stop stop-color="#FFE0B2" />
      <stop offset="0.54" stop-color="#F09E4E" />
      <stop offset="1" stop-color="#B45614" />
    </linearGradient>
    <linearGradient id="brand-sheen" x1="14" y1="12" x2="46" y2="46" gradientUnits="userSpaceOnUse">
      <stop stop-color="white" stop-opacity="0.58" />
      <stop offset="1" stop-color="white" stop-opacity="0" />
    </linearGradient>
  </defs>

  <rect x="2" y="2" width="60" height="60" rx="18" fill="url(#brand-bg)" />
  <rect x="3.5" y="3.5" width="57" height="57" rx="16.5" stroke="rgba(255,255,255,0.44)" />

  <path
    d="M21 23.5C21 19.91 23.91 17 27.5 17H41C42.38 17 43.5 18.12 43.5 19.5C43.5 20.88 42.38 22 41 22H27.5C26.67 22 26 22.67 26 23.5C26 24.33 26.67 25 27.5 25H36.5C40.64 25 44 28.36 44 32.5C44 36.64 40.64 40 36.5 40H24.5C23.12 40 22 38.88 22 37.5C22 36.12 23.12 35 24.5 35H36.5C37.88 35 39 33.88 39 32.5C39 31.12 37.88 30 36.5 30H27.5C23.91 30 21 27.09 21 23.5Z"
    fill="white"
    fill-opacity="0.96"
  />
  <path
    d="M43 40.5C43 44.09 40.09 47 36.5 47H23C21.62 47 20.5 45.88 20.5 44.5C20.5 43.12 21.62 42 23 42H36.5C37.33 42 38 41.33 38 40.5C38 39.67 37.33 39 36.5 39H27.5C23.36 39 20 35.64 20 31.5C20 27.36 23.36 24 27.5 24H39.5C40.88 24 42 25.12 42 26.5C42 27.88 40.88 29 39.5 29H27.5C26.12 29 25 30.12 25 31.5C25 32.88 26.12 34 27.5 34H36.5C40.09 34 43 36.91 43 40.5Z"
    fill="#6A320E"
    fill-opacity="0.78"
  />

  <circle cx="15" cy="14" r="10" fill="url(#brand-sheen)" />
</svg>
